<?xml version="1.0" encoding="utf-8"?>
<!-- Generator: Adobe Illustrator 20.1.0, SVG Export Plug-In . SVG Version: 6.00 Build 0)  -->
<svg version="1.1"
	 id="Layer_1" xmlns:cc="http://creativecommons.org/ns#" xmlns:dc="http://purl.org/dc/elements/1.1/" xmlns:inkscape="http://www.inkscape.org/namespaces/inkscape" xmlns:rdf="http://www.w3.org/1999/02/22-rdf-syntax-ns#" xmlns:sodipodi="http://sodipodi.sourceforge.net/DTD/sodipodi-0.dtd" xmlns:svg="http://www.w3.org/2000/svg"
	 xmlns="http://www.w3.org/2000/svg" xmlns:xlink="http://www.w3.org/1999/xlink" x="0px" y="0px" viewBox="0 0 100 104.7"
	 style="enable-background:new 0 0 100 104.7;" xml:space="preserve">
<style type="text/css">
	.st0{fill:#FFFFFF;}
</style>
<g transform="translate(0,-952.36218)">
	<path class="st0" d="M23,959.7c-7.2,0-13,5.8-13,13v74c0,1.6,1.4,3,3,3h54c1.6,0,3-1.4,3-3v-37h17c1.6,0,3-1.4,3-3v-34
		c0-7.2-5.8-13-13-13C74.4,959.7,23,959.7,23,959.7z M23,965.7h43.1c-1.3,2-2.1,4.4-2.1,7v71H16v-71C16,968.8,19.1,965.7,23,965.7z
		 M77,965.7c3.9,0,7,3.1,7,7v31H70v-31C70,968.8,73.1,965.7,77,965.7z M22.7,986.7c-1.6,0.1-2.9,1.6-2.8,3.2
		c0.1,1.6,1.6,2.9,3.2,2.8h34c1.6,0,3-1.4,3-3c0-1.6-1.5-3-3-3H23C22.9,986.7,22.8,986.7,22.7,986.7z M22.7,1000.7
		c-1.6,0.1-2.9,1.6-2.8,3.2c0.1,1.6,1.6,2.9,3.2,2.8h34c1.6,0,3-1.4,3-3c0-1.6-1.5-3-3-3H23C22.9,1000.7,22.8,1000.7,22.7,1000.7z
		 M22.7,1014.7c-1.6,0.1-2.9,1.6-2.8,3.2c0.1,1.6,1.6,2.9,3.2,2.8h34c1.6,0,3-1.4,3-3c0-1.6-1.5-3-3-3H23
		C22.9,1014.7,22.8,1014.7,22.7,1014.7z M22.7,1028.7c-1.6,0.1-2.9,1.6-2.8,3.2c0.1,1.6,1.6,2.9,3.2,2.8h14c1.6,0,3-1.4,3-3
		s-1.5-3-3-3H23C22.9,1028.7,22.8,1028.7,22.7,1028.7z"/>
</g>
</svg>
