<?xml version="1.0" encoding="utf-8"?>
<!-- Generator: Adobe Illustrator 20.1.0, SVG Export Plug-In . SVG Version: 6.00 Build 0)  -->
<svg version="1.1" id="Layer_1" xmlns="http://www.w3.org/2000/svg" xmlns:xlink="http://www.w3.org/1999/xlink" x="0px" y="0px"
	 viewBox="0 0 100 125" style="enable-background:new 0 0 100 125;" xml:space="preserve">
<style type="text/css">
	.st0{fill:#FFFFFF;}
</style>
<g>
	<path class="st0" d="M24.5,57h28c0.8,0,1.5-0.7,1.5-1.5c0-0.8-0.7-1.5-1.5-1.5h-28c-0.8,0-1.5,0.7-1.5,1.5C23,56.3,23.7,57,24.5,57
		z"/>
	<path class="st0" d="M24.5,66h28c0.8,0,1.5-0.7,1.5-1.5c0-0.8-0.7-1.5-1.5-1.5h-28c-0.8,0-1.5,0.7-1.5,1.5C23,65.3,23.7,66,24.5,66
		z"/>
	<path class="st0" d="M73.5,54h-10c-0.8,0-1.5,0.7-1.5,1.5c0,0.8,0.7,1.5,1.5,1.5h10c0.8,0,1.5-0.7,1.5-1.5C75,54.7,74.3,54,73.5,54
		z"/>
	<path class="st0" d="M73.5,63h-10c-0.8,0-1.5,0.7-1.5,1.5c0,0.8,0.7,1.5,1.5,1.5h10c0.8,0,1.5-0.7,1.5-1.5C75,63.7,74.3,63,73.5,63
		z"/>
	<path class="st0" d="M71.2,80.6c0.3,0.2,0.5,0.5,0.6,0.7c0.1,0.3,0.2,0.6,0.2,0.9c0,0.8,0.7,1.5,1.5,1.5s1.5-0.7,1.5-1.5
		c0-0.8-0.2-1.5-0.5-2.2c-0.5-1-1.4-1.9-2.5-2.4c-0.6-0.3-1.4-0.5-2.2-0.7v-0.4c0-0.8-0.7-1.5-1.5-1.5s-1.5,0.7-1.5,1.5v0.4
		c-0.6,0.1-1.1,0.2-1.6,0.4c-1.2,0.5-2.2,1.3-2.7,2.2c-0.6,0.9-0.8,1.9-0.8,2.8c0,0.9,0.2,1.8,0.7,2.5c0.4,0.6,0.9,1.1,1.4,1.5
		c1,0.6,2,0.9,3,1.2c0,0,0,0,0,0V93c-0.6-0.1-1.1-0.4-1.4-0.6c-0.5-0.4-0.7-1-0.8-1.7c0-0.8-0.7-1.5-1.5-1.5s-1.5,0.7-1.5,1.5
		c0,1.5,0.7,3,1.8,4c0.9,0.8,2,1.2,3.3,1.4v0.4c0,0.8,0.7,1.5,1.5,1.5s1.5-0.7,1.5-1.5V96c1-0.1,2-0.4,2.9-1c0.7-0.4,1.3-1,1.7-1.8
		c0.4-0.8,0.6-1.6,0.6-2.6c0-1-0.2-1.9-0.6-2.6c-0.4-0.7-0.9-1.2-1.4-1.6c-1-0.7-2-1.1-3.1-1.4c0,0,0,0,0,0V80
		C70.4,80.2,70.9,80.4,71.2,80.6z M65.3,83.6c-0.2-0.2-0.4-0.3-0.5-0.5c-0.1-0.2-0.2-0.4-0.2-0.9c0-0.5,0.2-1.1,0.6-1.6
		c0.2-0.2,0.5-0.4,1-0.6c0.2-0.1,0.4-0.1,0.6-0.2v4.4C66.2,84.1,65.6,83.9,65.3,83.6z M70.7,88.6c0.5,0.2,0.7,0.5,0.9,0.8
		c0.2,0.3,0.3,0.7,0.3,1.3c0,0.5-0.1,0.9-0.2,1.2c-0.1,0.2-0.2,0.4-0.4,0.5c-0.3,0.2-0.7,0.4-1.3,0.6c-0.1,0-0.1,0-0.2,0v-4.7
		C70.2,88.4,70.5,88.5,70.7,88.6z"/>
	<path class="st0" d="M50.5,79.5h-24c-2.2,0-4,1.8-4,4v6c0,2.2,1.8,4,4,4h24c2.2,0,4-1.8,4-4v-6C54.5,81.3,52.7,79.5,50.5,79.5z
		 M51.5,89.5c0,0.5-0.5,1-1,1h-24c-0.5,0-1-0.5-1-1v-6c0-0.5,0.5-1,1-1h24c0.5,0,1,0.5,1,1V89.5z"/>
	<path class="st0" d="M82.5,37.5h-8v2c0,1.1-0.9,2-2,2s-2-0.9-2-2v-2h-8v2c0,1.1-0.9,2-2,2s-2-0.9-2-2v-2h-8v2c0,1.1-0.9,2-2,2
		s-2-0.9-2-2v-2h-8v2c0,1.1-0.9,2-2,2s-2-0.9-2-2v-2h-8v2c0,1.1-0.9,2-2,2s-2-0.9-2-2v-2h-8c-2.2,0-4,1.8-4,4v60c0,2.2,1.8,4,4,4h68
		c2.2,0,4-1.8,4-4v-60C86.5,39.3,84.7,37.5,82.5,37.5z M83.5,101.5c0,0.5-0.5,1-1,1h-68c-0.5,0-1-0.5-1-1v-60c0-0.5,0.5-1,1-1h5.1
		c0.5,2.3,2.5,4,4.9,4s4.4-1.7,4.9-4h2.2c0.5,2.3,2.5,4,4.9,4s4.4-1.7,4.9-4h2.2c0.5,2.3,2.5,4,4.9,4s4.4-1.7,4.9-4h2.2
		c0.5,2.3,2.5,4,4.9,4c2.4,0,4.4-1.7,4.9-4h2.2c0.5,2.3,2.5,4,4.9,4s4.4-1.7,4.9-4h5.1c0.5,0,1,0.5,1,1V101.5z"/>
</g>
</svg>
